<?xml version="1.0" standalone="no"?>
<!DOCTYPE svg PUBLIC "-//W3C//DTD SVG 20010904//EN"
 "http://www.w3.org/TR/2001/REC-SVG-20010904/DTD/svg10.dtd">
<svg version="1.0" xmlns="http://www.w3.org/2000/svg"
 width="992.000000pt" height="992.000000pt" viewBox="0 0 992.000000 992.000000"
 preserveAspectRatio="xMidYMid meet">
<metadata>
Created by potrace 1.14, written by Peter Selinger 2001-2017
</metadata>
<g transform="translate(0.000000,992.000000) scale(0.100000,-0.100000)"
fill="#000000" stroke="none">
<path d="M0 7017 l0 -2023 911 1 c599 0 913 -3 915 -10 2 -5 6 -75 9 -155 3
-80 7 -165 10 -190 12 -130 15 -157 19 -180 2 -14 7 -47 11 -73 7 -50 7 -54
26 -147 6 -30 12 -62 13 -70 4 -27 37 -175 43 -190 3 -8 7 -21 9 -29 1 -8 6
-26 10 -40 4 -14 7 -29 6 -33 -1 -5 3 -8 9 -8 5 0 8 -4 5 -8 -2 -4 4 -35 15
-67 11 -33 22 -67 24 -75 4 -17 52 -155 65 -185 4 -11 16 -37 25 -59 9 -21 18
-45 19 -52 1 -8 8 -20 14 -26 7 -7 12 -18 12 -26 0 -13 152 -325 169 -347 5
-5 23 -37 41 -70 18 -33 36 -62 39 -65 10 -8 42 -63 48 -82 3 -10 9 -18 14
-18 5 0 9 -7 9 -15 0 -8 3 -15 8 -15 4 0 25 -28 47 -63 22 -34 42 -64 45 -67
4 -3 26 -31 49 -63 127 -174 387 -456 546 -594 33 -28 71 -62 85 -74 14 -12
41 -33 60 -48 19 -14 45 -36 58 -49 13 -12 26 -22 30 -22 4 0 19 -11 33 -24
33 -31 295 -206 308 -206 5 0 11 -4 13 -8 9 -21 491 -272 523 -272 2 0 29 -11
59 -25 30 -14 59 -25 65 -25 10 0 67 -23 103 -41 10 -5 27 -9 37 -9 11 0 22
-4 25 -9 5 -7 47 -19 71 -21 3 0 22 -7 42 -15 40 -15 241 -68 308 -81 22 -4
42 -8 45 -9 17 -5 120 -25 145 -29 17 -2 30 -5 30 -6 0 -1 16 -3 35 -5 19 -2
53 -6 75 -9 22 -3 67 -8 100 -11 33 -4 80 -9 105 -11 110 -13 320 -14 2290
-15 l2085 0 3 2017 c1 1199 -2 2020 -7 2023 -5 3 -914 6 -2020 6 -1106 0
-2011 1 -2011 2 0 2 641 644 1425 1428 784 784 1425 1427 1425 1431 0 12 -162
160 -300 274 -24 19 -48 40 -54 45 -88 77 -477 335 -505 335 -6 0 -11 4 -11 8
0 5 -16 14 -35 22 -19 8 -35 17 -35 22 0 4 -7 8 -15 8 -9 0 -33 11 -55 25 -22
14 -41 25 -44 25 -2 0 -48 21 -102 46 -144 66 -161 74 -168 74 -3 0 -25 8 -49
18 -70 31 -358 128 -401 136 -12 2 -41 10 -66 17 -25 7 -51 14 -59 15 -7 1
-34 8 -60 14 -25 6 -57 13 -71 16 -46 10 -315 53 -360 58 -25 2 -45 5 -45 6 0
6 -226 14 -425 14 -218 0 -363 -6 -455 -19 -55 -8 -110 -16 -144 -21 -19 -2
-47 -6 -63 -9 -15 -3 -43 -7 -60 -10 -18 -3 -40 -8 -48 -10 -16 -5 -73 -16
-105 -20 -11 -2 -20 -4 -20 -5 0 -1 -11 -3 -25 -6 -14 -2 -36 -8 -50 -14 -14
-5 -39 -11 -57 -14 -17 -2 -36 -7 -41 -10 -4 -3 -19 -7 -33 -9 -58 -11 -356
-116 -446 -157 -24 -11 -45 -20 -47 -20 -2 0 -26 -10 -53 -22 -26 -12 -50 -22
-53 -23 -3 -1 -29 -13 -59 -28 -30 -15 -57 -27 -60 -27 -3 0 -6 96 -6 212 l0
213 -2022 3 -2023 2 0 -2023z"/>
</g>
</svg>
