<svg width="120" height="37" viewBox="0 0 120 37" fill="none" xmlns="http://www.w3.org/2000/svg">
<path d="M37.1439 16.7706H21.9963V33.5412H37.1439V16.7706Z" fill="#A419A4"/>
<path d="M21.9963 16.7706L32.7073 4.91199C26.7918 -1.63733 17.2008 -1.63733 11.2853 4.91199C5.36975 11.4613 5.36978 22.0799 11.2853 28.6292C17.2008 35.1785 26.7917 35.1785 32.7073 28.6292L21.9963 16.7706Z" fill="#360056"/>
<path d="M21.9963 16.7706V33.5412C25.8729 33.5412 29.7495 31.9038 32.7073 28.6292L21.9963 16.7706Z" fill="#6D0C7D"/>
<path d="M15.1476 5.04433e-05H0V16.7706H15.1476V5.04433e-05Z" fill="#A419A4"/>
<path d="M15.1476 1.8182C13.7563 2.59951 12.4482 3.62444 11.2853 4.91199C8.3275 8.18667 6.8486 12.4786 6.84864 16.7706L15.1476 16.7706L15.1476 1.8182Z" fill="#6D0C7D"/>
<path d="M54.8934 20.1532C54.5538 19.5306 54.0868 19.0566 53.4925 18.7311C52.8982 18.4057 52.2049 18.243 51.4125 18.243C50.5352 18.243 49.7569 18.4411 49.0777 18.8373C48.3985 19.2335 47.8679 19.7995 47.4858 20.5353C47.1038 21.2711 46.9127 22.1201 46.9127 23.0823C46.9127 24.0728 47.1038 24.9359 47.4858 25.6717C47.882 26.4075 48.4268 26.9735 49.1202 27.3697C49.8135 27.766 50.6201 27.9641 51.5398 27.9641C52.6718 27.9641 53.5986 27.6669 54.3203 27.0726C55.042 26.4641 55.516 25.6222 55.7424 24.5468H50.6484V22.2757H58.6714V24.8652C58.4733 25.8981 58.0488 26.8533 57.3979 27.7306C56.747 28.6079 55.9051 29.3154 54.8722 29.8531C53.8533 30.3766 52.7072 30.6384 51.4337 30.6384C50.0045 30.6384 48.7098 30.32 47.5495 29.6833C46.4033 29.0324 45.4977 28.1339 44.8327 26.9877C44.1818 25.8415 43.8563 24.5397 43.8563 23.0823C43.8563 21.6248 44.1818 20.323 44.8327 19.1769C45.4977 18.0166 46.4033 17.118 47.5495 16.4813C48.7098 15.8304 49.9975 15.5049 51.4125 15.5049C53.0822 15.5049 54.5326 15.9153 55.7636 16.736C56.9947 17.5425 57.8437 18.6816 58.3106 20.1532H54.8934Z" fill="url(#paint0_linear_70_669)"/>
<path d="M60.1058 24.5893C60.1058 23.4007 60.3393 22.3465 60.8062 21.4267C61.2873 20.507 61.9312 19.7995 62.7377 19.3042C63.5584 18.809 64.4711 18.5613 65.4757 18.5613C66.353 18.5613 67.1172 18.7382 67.7681 19.092C68.4331 19.4457 68.9637 19.8914 69.3599 20.4291V18.7524H72.3527V30.5111H69.3599V28.7918C68.9779 29.3437 68.4473 29.8036 67.7681 30.1715C67.103 30.5252 66.3318 30.7021 65.4545 30.7021C64.464 30.7021 63.5584 30.4474 62.7377 29.938C61.9312 29.4286 61.2873 28.714 60.8062 27.7942C60.3393 26.8603 60.1058 25.792 60.1058 24.5893ZM69.3599 24.6317C69.3599 23.9101 69.2184 23.2945 68.9354 22.7851C68.6524 22.2616 68.2704 21.8654 67.7893 21.5965C67.3082 21.3135 66.7917 21.172 66.2398 21.172C65.688 21.172 65.1786 21.3064 64.7116 21.5753C64.2447 21.8442 63.8626 22.2404 63.5655 22.7639C63.2825 23.2733 63.141 23.8818 63.141 24.5893C63.141 25.2968 63.2825 25.9194 63.5655 26.4571C63.8626 26.9806 64.2447 27.3839 64.7116 27.6669C65.1927 27.9499 65.7021 28.0914 66.2398 28.0914C66.7917 28.0914 67.3082 27.957 67.7893 27.6881C68.2704 27.4051 68.6524 27.0089 68.9354 26.4995C69.2184 25.976 69.3599 25.3534 69.3599 24.6317Z" fill="url(#paint1_linear_70_669)"/>
<path d="M78.2264 14.8045V30.5111H75.2549V14.8045H78.2264Z" fill="url(#paint2_linear_70_669)"/>
<path d="M84.1338 14.8045V30.5111H81.1622V14.8045H84.1338Z" fill="url(#paint3_linear_70_669)"/>
<path d="M98.0005 24.377C98.0005 24.8015 97.9722 25.1836 97.9156 25.5232H89.3195C89.3902 26.3722 89.6874 27.0372 90.2109 27.5183C90.7345 27.9994 91.3783 28.24 92.1424 28.24C93.2461 28.24 94.0314 27.7659 94.4984 26.8179H97.7034C97.3638 27.9499 96.7129 28.8838 95.7507 29.6196C94.7885 30.3413 93.6069 30.7021 92.2061 30.7021C91.0741 30.7021 90.0553 30.4545 89.1497 29.9592C88.2582 29.4498 87.5578 28.7352 87.0484 27.8155C86.5531 26.8957 86.3055 25.8345 86.3055 24.6317C86.3055 23.4148 86.5531 22.3465 87.0484 21.4267C87.5436 20.507 88.237 19.7995 89.1284 19.3042C90.0199 18.809 91.0458 18.5613 92.2061 18.5613C93.3239 18.5613 94.3215 18.8019 95.1988 19.283C96.0903 19.7641 96.7766 20.4504 97.2577 21.3418C97.7529 22.2191 98.0005 23.2309 98.0005 24.377ZM94.9229 23.528C94.9087 22.7639 94.6328 22.1555 94.0951 21.7026C93.5574 21.2357 92.8994 21.0022 92.1212 21.0022C91.3854 21.0022 90.7628 21.2286 90.2534 21.6814C89.7581 22.1201 89.4539 22.7356 89.3407 23.528H94.9229Z" fill="url(#paint4_linear_70_669)"/>
<path d="M103.141 20.5777C103.523 19.9551 104.018 19.4669 104.627 19.1132C105.249 18.7594 105.957 18.5826 106.749 18.5826V21.7026H105.964C105.03 21.7026 104.323 21.922 103.841 22.3606C103.374 22.7993 103.141 23.5634 103.141 24.6529V30.5111H100.169V18.7524H103.141V20.5777Z" fill="url(#paint5_linear_70_669)"/>
<path d="M120 18.7524L112.72 36.072H109.557L112.104 30.2139L107.392 18.7524H110.725L113.76 26.9665L116.837 18.7524H120Z" fill="url(#paint6_linear_70_669)"/>
<defs>
<linearGradient id="paint0_linear_70_669" x1="81.9156" y1="12.6024" x2="81.9156" y2="33.8275" gradientUnits="userSpaceOnUse">
<stop stop-color="#6300FF"/>
<stop offset="1" stop-color="#FF00C7" stop-opacity="0.38"/>
</linearGradient>
<linearGradient id="paint1_linear_70_669" x1="81.9156" y1="12.6024" x2="81.9156" y2="33.8275" gradientUnits="userSpaceOnUse">
<stop stop-color="#6300FF"/>
<stop offset="1" stop-color="#FF00C7" stop-opacity="0.38"/>
</linearGradient>
<linearGradient id="paint2_linear_70_669" x1="81.9156" y1="12.6024" x2="81.9156" y2="33.8275" gradientUnits="userSpaceOnUse">
<stop stop-color="#6300FF"/>
<stop offset="1" stop-color="#FF00C7" stop-opacity="0.38"/>
</linearGradient>
<linearGradient id="paint3_linear_70_669" x1="81.9156" y1="12.6024" x2="81.9156" y2="33.8275" gradientUnits="userSpaceOnUse">
<stop stop-color="#6300FF"/>
<stop offset="1" stop-color="#FF00C7" stop-opacity="0.38"/>
</linearGradient>
<linearGradient id="paint4_linear_70_669" x1="81.9156" y1="12.6024" x2="81.9156" y2="33.8275" gradientUnits="userSpaceOnUse">
<stop stop-color="#6300FF"/>
<stop offset="1" stop-color="#FF00C7" stop-opacity="0.38"/>
</linearGradient>
<linearGradient id="paint5_linear_70_669" x1="81.9156" y1="12.6024" x2="81.9156" y2="33.8275" gradientUnits="userSpaceOnUse">
<stop stop-color="#6300FF"/>
<stop offset="1" stop-color="#FF00C7" stop-opacity="0.38"/>
</linearGradient>
<linearGradient id="paint6_linear_70_669" x1="81.9156" y1="12.6024" x2="81.9156" y2="33.8275" gradientUnits="userSpaceOnUse">
<stop stop-color="#6300FF"/>
<stop offset="1" stop-color="#FF00C7" stop-opacity="0.38"/>
</linearGradient>
</defs>
</svg>
